<?xml version="1.0" encoding="UTF-8"?>
<svg width="57px" height="66px" viewBox="0 0 57 66" version="1.1" xmlns="http://www.w3.org/2000/svg" xmlns:xlink="http://www.w3.org/1999/xlink">
    <!-- Generator: Sketch 63.1 (92452) - https://sketch.com -->
    <title>apple</title>
    <desc>Created with Sketch.</desc>
    <g id="Page-1" stroke="none" stroke-width="1" fill="none" fill-rule="evenodd" stroke-linejoin="round">
        <g id="xlg-1312px-16-column" transform="translate(-358.000000, -1910.000000)" stroke="#9EF0F0" stroke-width="0.525">
            <g id="Group-2" transform="translate(335.000000, 1679.000000)">
                <g id="apple" transform="translate(24.000000, 232.000000)">
                    <path d="M44.8299234,25.6357828 C44.8299234,25.6357828 49.5526529,27.6110527 46.9630442,42.7007494 M45.4037329,49.701652 L46.1929876,46.9669911 M23.5029813,19.2364203 C20.0985205,18.9121859 16.3570265,17.1032995 12.8331109,17.1032995 C2.93329717,17.1032995 0.0343859649,25.7552376 0.0343859649,34.1682661 C0.0343859649,52.6112288 8.5690024,64.0319577 17.0758883,64.0319577 C20.6467325,64.0319577 24.6719315,61.8988369 27.769223,61.8988369 L27.7606905,61.8988369 C30.8622482,61.8988369 34.8767816,64.0319577 38.4518921,64.0319577 C46.9651773,64.0298246 55.4955275,52.5280371 55.4955275,34.1682661 C55.4955275,25.7936337 52.6051488,17.1032995 42.6968025,17.1032995 C37.8759495,17.1032995 33.1553531,19.1724267 28.3089025,19.2342872 L27.7649567,19.2364203 L27.7649567,13.3810036 C27.7649567,13.3810036 42.1208599,14.3793042 44.8299234,2.71539949 C44.8299234,2.71539949 33.7163638,-0.601603397 27.7585574,9.11476197 M20.2969007,3.23801409 C16.7644526,-0.294433998 10.7042563,0.0404659725 10.7042563,0.0404659725 C10.7042563,0.0404659725 10.3693564,6.10279537 13.9018045,9.63311034 C17.4342526,13.1634253 23.4944488,12.8306585 23.4944488,12.8306585 C23.4944488,12.8306585 23.8293488,6.77046218 20.2969007,3.23801409 Z" id="Shape"></path>
                </g>
            </g>
        </g>
    </g>
</svg>