<?xml version="1.0" encoding="UTF-8"?>
<svg width="65px" height="52px" viewBox="0 0 65 52" version="1.1" xmlns="http://www.w3.org/2000/svg" xmlns:xlink="http://www.w3.org/1999/xlink">
    <!-- Generator: Sketch 64 (93537) - https://sketch.com -->
    <title>bee</title>
    <desc>Created with Sketch.</desc>
    <g id="Final" stroke="none" stroke-width="1" fill="none" fill-rule="evenodd" stroke-linecap="round" stroke-linejoin="round">
        <g id="option-1" transform="translate(-671.000000, -1789.000000)" stroke="#9EF0F0" stroke-width="0.525">
            <g id="Group-2" transform="translate(335.000000, 1227.000000)">
                <g id="bee" transform="translate(337.000000, 563.000000)">
                    <path d="M3.96291925,23.1357697 C0.202010157,21.0230424 -1.11314136,16.3012243 1.02504046,12.5848606 C2.59261622,9.86334548 5.58352531,8.44213336 8.54897985,8.70728487 L26.250495,10.3915273 L13.2092829,22.0433455 C13.1647374,22.0857697 13.1180708,22.1239515 13.0714041,22.1642546 L13.0629192,22.1727394 L13.0629192,22.1727394 C10.6256465,24.3321334 6.96867682,24.8263758 3.96291925,23.1357697 Z M52.0592829,49.5427394 C55.860495,51.5812243 60.620495,50.1918303 62.6844344,46.4372849 C64.2011011,43.6860728 63.8447374,40.4278909 62.0523132,38.0797091 L51.2638283,24.1200121 L48.120192,41.2063758 C48.1074647,41.2678909 48.0968586,41.3272849 48.0862526,41.3866788 L48.0841314,41.3972849 L48.0841314,41.3972849 C47.5156465,44.5854667 49.0217071,47.9115273 52.0592829,49.5427394 Z M27.6780708,16.738194 L25.2514041,21.0463758 L42.6241314,30.5854667 L45.050798,26.2772849 L27.6780708,16.738194 Z M41.4447374,12.4851637 L41.4447374,12.4851637 C38.0317071,10.6121334 33.9865556,10.9366788 30.9723132,12.9836485 L46.5420102,21.5321334 C46.7138283,17.9239515 44.8577677,14.358194 41.4447374,12.4851637 Z M20.4320102,29.6033455 L37.8047374,39.1403152 L40.2314041,34.8321334 L22.8586768,25.2951637 L20.4320102,29.6033455 Z M24.0380708,43.3954667 L24.0380708,43.3954667 C27.4511011,45.268497 31.4962526,44.9460728 34.510495,42.8969818 L18.940798,34.348497 C18.7689799,37.9566788 20.6250405,41.5224364 24.0380708,43.3954667 Z M42.0174647,5.11819396 C42.9529192,3.45516366 42.3462526,1.35940608 40.6641314,0.434557599 C38.9798889,-0.490290886 36.8586768,0.110012145 35.9211011,1.77092124 C34.9856465,3.43395154 35.590192,5.53183033 37.2744344,6.4545576 C38.9586768,7.37940608 41.0820102,6.78122427 42.0174647,5.11819396 Z M53.5738283,11.4627394 C54.5092829,9.79970911 53.9026162,7.70395154 52.220495,6.77910305 C50.5362526,5.85425457 48.4150405,6.4545576 47.4774647,8.11546669 C46.5420102,9.77849699 47.1465556,11.8763758 48.830798,12.7991031 C50.5150405,13.7239515 52.6383738,13.1257697 53.5738283,11.4627394 Z" id="Shape"></path>
                </g>
            </g>
        </g>
    </g>
</svg>