<?xml version="1.0" encoding="UTF-8"?>
<svg width="65px" height="65px" viewBox="0 0 65 65" version="1.1" xmlns="http://www.w3.org/2000/svg" xmlns:xlink="http://www.w3.org/1999/xlink">
    <!-- Generator: Sketch 63.1 (92452) - https://sketch.com -->
    <title>college</title>
    <desc>Created with Sketch.</desc>
    <g id="Page-1" stroke="none" stroke-width="1" fill="none" fill-rule="evenodd" stroke-linejoin="round">
        <g id="xlg-1312px-16-column" transform="translate(-677.000000, -2231.000000)" stroke="#9EF0F0" stroke-width="0.525">
            <g id="Group-2" transform="translate(335.000000, 1679.000000)">
                <g id="Group-11-Copy" transform="translate(321.000000, 321.000000)">
                    <g id="Group-5">
                        <g id="college" transform="translate(22.000000, 232.000000)">
                            <path d="M12.7272727,29.6969697 L12.7272727,46.6666667 M63.6363636,57.2727273 L-1.65556457e-12,57.2727273 L-1.65556457e-12,63.6363636 L63.6363636,63.6363636 L63.6363636,57.2727273 Z M31.8181818,1.63424829e-13 L-1.65556457e-12,25.4545455 L63.6363636,25.4545455 L31.8181818,1.63424829e-13 Z M59.3939394,50.9090909 L4.24242424,50.9090909 L4.24242424,57.2727273 L59.3939394,57.2727273 L59.3939394,50.9090909 Z M19.0909091,25.4545455 L6.36363636,25.4545455 L6.36363636,50.9090909 L19.0909091,50.9090909 L19.0909091,25.4545455 Z M50.9090909,29.6969697 L50.9090909,46.6666667 M57.2727273,25.4545455 L44.5454545,25.4545455 L44.5454545,50.9090909 L57.2727273,50.9090909 L57.2727273,25.4545455 Z M31.8181818,9.54545455 C28.8887879,9.54545455 26.5151515,11.9190909 26.5151515,14.8484848 C26.5151515,17.7778788 28.8887879,20.1515152 31.8181818,20.1515152 C34.7475758,20.1515152 37.1212121,17.7778788 37.1212121,14.8484848 C37.1212121,11.9190909 34.7475758,9.54545455 31.8181818,9.54545455 Z" id="Shape"></path>
                        </g>
                    </g>
                </g>
            </g>
        </g>
    </g>
</svg>