<?xml version="1.0" encoding="UTF-8"?>
<svg width="55px" height="64px" viewBox="0 0 55 64" version="1.1" xmlns="http://www.w3.org/2000/svg" xmlns:xlink="http://www.w3.org/1999/xlink">
    <!-- Generator: Sketch 63.1 (92452) - https://sketch.com -->
    <title>education</title>
    <desc>Created with Sketch.</desc>
    <g id="Page-1" stroke="none" stroke-width="1" fill="none" fill-rule="evenodd" stroke-linejoin="round">
        <g id="xlg-1312px-16-column" transform="translate(-368.000000, -2233.000000)" stroke="#9EF0F0" stroke-width="0.525">
            <g id="Group-2" transform="translate(335.000000, 1679.000000)">
                <g id="Group-4" transform="translate(1.000000, 321.000000)">
                    <g id="education" transform="translate(33.000000, 234.000000)">
                        <path d="M13.3304348,18.2405797 C12.3565217,20.1884058 11.8086957,22.3797101 11.8086957,24.7130435 C11.8086957,30.657971 15.3594203,35.7507246 20.4724638,38.0231884 C9.19130435,40.7014493 0,50.8057971 0,62.8985507 M39.4231884,18.2405797 C40.3971014,20.1884058 40.9449275,22.3797101 40.9449275,24.7130435 C40.9449275,30.657971 37.3942029,35.7507246 32.3014493,38.0231884 C43.5623188,40.7014493 52.7536232,50.8057971 52.7536232,62.8985507 M10.5507246,42.6695652 L17.5507246,54.7826087 L26.3768116,49.6898551 L35.2028986,54.7826087 L42.2028986,42.6695652 M39.4231884,18.2405797 L39.4231884,14.3043478 C36.4,12.6405797 32.6666667,10.1449275 26.4376812,10.1449275 C20.1884058,10.1449275 16.3536232,12.6405797 13.3304348,14.3043478 L13.3304348,18.2405797 M39.4231884,18.2405797 L48.6956522,12.884058 L26.3768116,0 L4.05797101,12.884058 L13.3304348,18.2405797 C13.3304348,18.2405797 39.4089855,18.2263768 39.4231884,18.2405797 Z M4.05797101,30.4347826 L4.05797101,12.884058" id="Shape"></path>
                    </g>
                </g>
            </g>
        </g>
    </g>
</svg>