<?xml version="1.0" encoding="UTF-8"?>
<svg width="61px" height="65px" viewBox="0 0 61 65" version="1.1" xmlns="http://www.w3.org/2000/svg" xmlns:xlink="http://www.w3.org/1999/xlink">
    <!-- Generator: Sketch 64 (93537) - https://sketch.com -->
    <title>group</title>
    <desc>Created with Sketch.</desc>
    <g id="Final" stroke="none" stroke-width="1" fill="none" fill-rule="evenodd" stroke-linejoin="round">
        <g id="option-1" transform="translate(-353.000000, -1778.000000)" stroke="#9EF0F0" stroke-width="0.525">
            <g id="Group-2" transform="translate(335.000000, 1227.000000)">
                <g id="group" transform="translate(19.000000, 552.000000)">
                    <path d="M12.7272727,63.6363636 L12.7272727,47.7442424 C12.7272727,39.7239394 18.2933333,33.0081818 25.7706061,31.2369697 C22.3851515,29.7309091 20.0242424,26.3454545 20.0242424,22.4 C20.0242424,17.0566667 24.3557576,12.7272727 29.6969697,12.7272727 C35.0381818,12.7272727 39.369697,17.0587879 39.369697,22.4 C39.369697,26.3433333 37.0066667,29.7287879 33.6233333,31.2369697 C41.1006061,33.0081818 46.6666667,39.7239394 46.6666667,47.7442424 L46.6666667,63.6363636 M59.3939394,50.9090909 L59.3939394,35.0169697 C59.3939394,26.9966667 53.8278788,20.2809091 46.3506061,18.509697 C49.7339394,17.0036364 52.0969697,13.6181818 52.0969697,9.67272727 C52.0969697,4.33151515 47.7675758,0 42.4242424,0 C37.0809091,0 32.7515152,4.33151515 32.7515152,9.67272727 C32.7515152,11.0430303 33.0357576,12.3433333 33.5512121,13.5248485 M25.8448485,13.5248485 C26.3581818,12.3454545 26.6445455,11.0430303 26.6445455,9.67272727 C26.6424242,4.33151515 22.3130303,0 16.969697,0 C11.6263636,0 7.2969697,4.33151515 7.2969697,9.67272727 C7.2969697,13.6160606 9.66,17.0015152 13.0433333,18.509697 C5.56606061,20.2809091 0,26.9966667 0,35.0169697 L0,50.9090909" id="Shape"></path>
                </g>
            </g>
        </g>
    </g>
</svg>