<?xml version="1.0" encoding="UTF-8"?>
<svg width="66px" height="46px" viewBox="0 0 66 46" version="1.1" xmlns="http://www.w3.org/2000/svg" xmlns:xlink="http://www.w3.org/1999/xlink">
    <!-- Generator: Sketch 63.1 (92452) - https://sketch.com -->
    <title>high--five</title>
    <desc>Created with Sketch.</desc>
    <g id="Page-1" stroke="none" stroke-width="1" fill="none" fill-rule="evenodd" stroke-linejoin="round">
        <g id="xlg-1312px-16-column" transform="translate(-684.000000, -1928.000000)" stroke="#9EF0F0" stroke-width="0.525">
            <g id="Group-2" transform="translate(335.000000, 1679.000000)">
                <g id="high--five" transform="translate(350.000000, 250.000000)">
                    <path d="M0.015205512,44.7042053 L0.015205512,26.3563222 C0.015205512,20.3191257 4.20462818,15.2654217 9.8331005,13.9306819 C7.2849608,12.7960466 5.50743645,10.2479069 5.50743645,7.28039914 C5.50743645,3.25914944 8.76658589,0 12.7878356,0 C16.8090853,0 20.0682347,3.25914944 20.0682347,7.28039914 C20.0682347,10.2479069 18.2885816,12.7981753 15.7425707,13.9306819 C23.6211547,11.2313994 26.2672179,8.12977904 28.9537277,5.28574008 C31.6402376,2.44170112 33.2283013,3.47841292 34.0734236,4.25754336 C35.0143407,5.12182466 36.2021953,6.94618199 33.4071181,9.84556902 C30.6141696,12.744956 23.4295652,20.0296127 23.4295652,20.0296127 L23.4295652,44.7042053 M40.4618674,44.7042053 L40.4618674,20.0296127 C40.4618674,20.0296127 35.3741031,14.871599 32.0957947,11.5081397 M63.8783559,44.7042053 L63.8783559,26.3563222 C63.8783559,20.3191257 59.6889332,15.2654217 54.0604609,13.9306819 C56.6086006,12.7960466 58.386125,10.2479069 58.386125,7.28039914 C58.386125,3.25914944 55.1269755,0 51.1057258,0 C47.0844761,0 43.8253267,3.25914944 43.8253267,7.28039914 C43.8253267,10.2479069 45.6049798,12.7981753 48.1509907,13.9306819 C40.2724067,11.2313994 37.2538085,7.63803279 34.5672986,4.79612259" id="Shape"></path>
                </g>
            </g>
        </g>
    </g>
</svg>