<?xml version="1.0" encoding="UTF-8"?>
<svg width="64px" height="60px" viewBox="0 0 64 60" version="1.1" xmlns="http://www.w3.org/2000/svg" xmlns:xlink="http://www.w3.org/1999/xlink">
    <!-- Generator: Sketch 64 (93537) - https://sketch.com -->
    <title>watson--avatar</title>
    <desc>Created with Sketch.</desc>
    <g id="Final" stroke="none" stroke-width="1" fill="none" fill-rule="evenodd" stroke-linecap="round" stroke-linejoin="round">
        <g id="option-1" transform="translate(-351.000000, -1470.000000)" stroke="#9EF0F0" stroke-width="0.525">
            <g id="Group-2" transform="translate(335.000000, 1227.000000)">
                <g id="watson--avatar" transform="translate(16.000000, 243.000000)">
                    <path d="M0.00212121212,18.3781818 L6.30848485,22.0181818 M17.0906061,11.2360606 L13.4506061,4.92969697 M31.8181818,0.00848484848 L31.8181818,7.28848485 M50.1878788,4.93181818 L46.5478788,11.2381818 M57.3278788,22.0181818 L63.6342424,18.3781818 M20.2957576,56.3839394 C30.9972727,62.5630303 44.6790909,58.8954545 50.8581818,48.1939394 C57.0372727,37.4924242 53.369697,23.8106061 42.6681818,17.6315152 M42.6681818,17.6315152 C37.3460606,14.56 31.2878788,13.9215152 25.7812121,15.3724242 M9.72363636,42.2184848 C11.1045455,47.979697 14.7572727,53.1872727 20.2957576,56.3839394 M42.6660606,17.6357576 C37.8954545,14.880303 29.020303,21.320303 22.8433333,32.019697 C16.6663636,42.7190909 15.5272727,53.6242424 20.2978788,56.379697 M25.0578788,20.65 C19.2181818,20.2639394 14.28,22.0669697 12.0145455,25.9912121 C8.11363636,32.7472727 13.6245455,43.2324242 24.3218182,49.4093939 C35.0190909,55.5863636 46.8554545,55.1154545 50.7563636,48.3593939" id="Shape"></path>
                </g>
            </g>
        </g>
    </g>
</svg>