<svg xmlns="http://www.w3.org/2000/svg" width="32" height="32" viewBox="0 0 32 32">
    <g fill="none" fill-rule="nonzero">
        <path fill="#E01E5A" d="M6.813 20.18a3.337 3.337 0 0 1-3.33 3.33 3.337 3.337 0 0 1-3.328-3.33 3.337 3.337 0 0 1 3.329-3.328h3.329v3.329zM8.49 20.18a3.337 3.337 0 0 1 3.33-3.328 3.337 3.337 0 0 1 3.328 3.329v8.335a3.337 3.337 0 0 1-3.329 3.33 3.337 3.337 0 0 1-3.329-3.33v-8.335z"/>
        <path fill="#36C5F0" d="M11.82 6.813a3.337 3.337 0 0 1-3.33-3.33A3.337 3.337 0 0 1 11.82.156a3.337 3.337 0 0 1 3.328 3.329v3.329H11.82zM11.82 8.49a3.337 3.337 0 0 1 3.328 3.33 3.337 3.337 0 0 1-3.329 3.328H3.484a3.337 3.337 0 0 1-3.33-3.329 3.337 3.337 0 0 1 3.33-3.329h8.335z"/>
        <path fill="#2EB67D" d="M25.187 11.82a3.337 3.337 0 0 1 3.33-3.33 3.337 3.337 0 0 1 3.328 3.33 3.337 3.337 0 0 1-3.329 3.328h-3.329V11.82zM23.51 11.82a3.337 3.337 0 0 1-3.33 3.328 3.337 3.337 0 0 1-3.328-3.329V3.484A3.337 3.337 0 0 1 20.18.154a3.337 3.337 0 0 1 3.329 3.33v8.335z"/>
        <path fill="#ECB22E" d="M20.18 25.187a3.337 3.337 0 0 1 3.33 3.33 3.337 3.337 0 0 1-3.33 3.328 3.337 3.337 0 0 1-3.328-3.329v-3.329h3.329zM20.18 23.51a3.337 3.337 0 0 1-3.328-3.33 3.337 3.337 0 0 1 3.329-3.328h8.335a3.337 3.337 0 0 1 3.33 3.329 3.337 3.337 0 0 1-3.33 3.329h-8.335z"/>
    </g>
</svg>
